Coordinates
version=1
nRows=15
nColumns=63
inDegrees=yes

Units are S.I. units (second, meters, Newtons, ...)
If the header above contains a line with 'inDegrees', this indicates whether rotational values are in degrees (yes) or radians (no).

endheader
time	pelvis_tilt	pelvis_list	pelvis_rotation	pelvis_tx	pelvis_ty	pelvis_tz	hip_flexion_r	hip_adduction_r	hip_rotation_r	knee_angle_r	knee_angle_r_beta	ankle_angle_r	subtalar_angle_r	mtp_angle_r	hip_flexion_l	hip_adduction_l	hip_rotation_l	knee_angle_l	knee_angle_l_beta	ankle_angle_l	subtalar_angle_l	mtp_angle_l	L5_S1_Flex_Ext	L5_S1_Lat_Bending	L5_S1_axial_rotation	L4_L5_Flex_Ext	L4_L5_Lat_Bending	L4_L5_axial_rotation	L3_L4_Flex_Ext	L3_L4_Lat_Bending	L3_L4_axial_rotation	L2_L3_Flex_Ext	L2_L3_Lat_Bending	L2_L3_axial_rotation	L1_L2_Flex_Ext	L1_L2_Lat_Bending	L1_L2_axial_rotation	L1_T12_Flex_Ext	L1_T12_Lat_Bending	L1_T12_axial_rotation	Abs_r3	Abs_r2	Abs_r1	Abs_t1	Abs_t2	neck_flexion	neck_bending	neck_rotation	arm_flex_r	arm_add_r	arm_rot_r	elbow_flex_r	pro_sup_r	wrist_flex_r	wrist_dev_r	arm_flex_l	arm_add_l	arm_rot_l	elbow_flex_l	pro_sup_l	wrist_flex_l	wrist_dev_l
0.000000	-1.785127	-3.389678	90.963952	0.194989	0.751594	0.792941	6.524909	-1.482468	-4.626179	11.375996	0.198549	29.384630	3.616437	0.000000	4.250296	3.421477	12.749578	3.065906	0.053510	28.464075	-11.499092	0.000000	0.274370	0.054330	0.852560	0.509533	0.072259	0.905845	0.450763	0.132097	0.905845	0.313578	0.132097	0.745990	0.254780	0.110789	0.692705	0.156775	0.084157	0.639420	1.959800	0.614589	4.741684	0.000000	0.000000	23.747653	-2.321637	7.638671	23.743149	-15.055513	82.367331	59.844787	39.044744	11.731529	11.937735	10.730732	-10.683152	49.706226	67.055320	71.256021	1.277298	10.572594
0.016949	-1.817843	-3.217638	91.353838	0.194871	0.752181	0.791676	5.578209	-1.607886	-6.415123	10.474391	0.182813	29.679331	6.065745	0.000000	3.935600	3.448868	12.929665	2.927283	0.051091	28.469686	-11.086642	0.000000	0.272153	0.045004	0.778758	0.505415	0.059855	0.827431	0.447120	0.109422	0.827431	0.311043	0.109422	0.681413	0.252721	0.091772	0.632741	0.155508	0.069711	0.584069	1.943960	0.509091	4.331220	0.000000	0.000000	23.539912	-2.112776	7.867936	23.540514	-15.023668	82.492139	60.063269	35.173202	10.198657	11.092547	10.535070	-10.885355	49.868662	67.238061	70.581254	1.351819	11.365557
0.033898	-1.834228	-3.093500	91.747927	0.194757	0.752617	0.790760	4.796956	-1.695953	-7.941786	9.693671	0.169186	29.882990	8.051747	0.000000	3.727356	3.461710	13.084563	2.861621	0.049945	28.487323	-10.709862	0.000000	0.269554	0.037446	0.706742	0.500588	0.049804	0.750913	0.442850	0.091047	0.750913	0.308073	0.091047	0.618399	0.250308	0.076361	0.574228	0.154023	0.058005	0.530057	1.925395	0.423602	3.930687	0.000000	0.000000	23.411461	-1.942140	8.059565	23.380619	-14.969556	82.523611	60.217115	32.027810	8.880498	10.588142	10.398405	-11.042706	49.979942	67.379390	70.182259	1.478186	12.067564
0.050847	-1.836685	-3.012429	92.143110	0.194645	0.752918	0.790159	4.168288	-1.751338	-9.224363	9.027237	0.157555	30.006456	9.613226	0.000000	3.614501	3.462373	13.215358	2.861017	0.049934	28.515516	-10.365472	0.000000	0.266666	0.031426	0.636693	0.495225	0.041796	0.676486	0.438105	0.076408	0.676486	0.304772	0.076408	0.557106	0.247626	0.064083	0.517313	0.152373	0.048678	0.477520	1.904767	0.355493	3.541094	0.000000	0.000000	23.353137	-1.804929	8.217284	23.259895	-14.896357	82.476552	60.312098	29.545499	7.762488	10.377825	10.312707	-11.159004	50.042084	67.483206	70.026875	1.648419	12.681933
0.067797	-1.827613	-2.969589	92.536279	0.194534	0.753100	0.789836	3.679341	-1.778707	-10.281054	8.468491	0.147803	30.060580	10.788966	0.000000	3.585975	3.453228	13.323137	2.917570	0.050921	28.552797	-10.050194	0.000000	0.263581	0.026709	0.568792	0.489497	0.035523	0.604341	0.433038	0.064940	0.604341	0.301247	0.064940	0.497693	0.244762	0.054465	0.462143	0.150610	0.041372	0.426594	1.882736	0.302137	3.163449	0.000000	0.000000	23.355778	-1.696344	8.344823	23.174774	-14.807249	82.365770	60.353992	27.663198	6.830065	10.414903	10.269947	-11.238051	50.057105	67.553408	70.082942	1.854537	13.211981
0.084746	-1.809413	-2.960145	92.924323	0.194421	0.753178	0.789758	3.317250	-1.782730	-11.130056	8.010832	0.139815	30.056211	11.617753	0.000000	3.630716	3.436643	13.408987	3.023375	0.052768	28.597695	-9.760746	0.000000	0.260393	0.023064	0.503221	0.483576	0.030676	0.534672	0.427800	0.056079	0.534672	0.297604	0.056079	0.440318	0.241801	0.047033	0.408867	0.148789	0.035727	0.377415	1.859964	0.260909	2.798762	0.000000	0.000000	23.410219	-1.611583	8.445909	23.121688	-14.705410	82.206072	60.348570	26.317837	6.068664	10.652682	10.262096	-11.283646	50.027024	67.593894	70.318302	2.088561	13.661026
0.101695	-1.784487	-2.979262	93.304135	0.194305	0.753167	0.789889	3.069153	-1.768073	-11.789567	7.647663	0.133477	30.004201	12.138371	0.000000	3.737662	3.414990	13.473995	3.170530	0.055336	28.648741	-9.493852	0.000000	0.257194	0.020260	0.440160	0.477635	0.026945	0.467671	0.422544	0.049259	0.467671	0.293947	0.049259	0.385140	0.238830	0.041313	0.357630	0.146961	0.031382	0.330120	1.837111	0.229180	2.448041	0.000000	0.000000	23.507298	-1.545847	8.524269	23.097068	-14.594019	82.012264	60.301603	25.446347	5.463722	11.044468	10.281126	-11.299590	49.953858	67.608564	70.700793	2.342510	14.032384
0.118644	-1.755236	-3.022105	93.672605	0.194185	0.753084	0.790196	2.922186	-1.739404	-12.277785	7.372384	0.128672	29.915398	12.389604	0.000000	3.895752	3.390639	13.519246	3.351132	0.058488	28.704465	-9.246230	0.000000	0.254076	0.018062	0.379793	0.471844	0.024023	0.403530	0.417421	0.043916	0.403530	0.290383	0.043916	0.332319	0.235935	0.036832	0.308582	0.145179	0.027978	0.284845	1.814838	0.204323	2.112294	0.000000	0.000000	23.637851	-1.494336	8.583631	23.097347	-14.476254	81.799154	60.218867	24.985657	5.000676	11.543567	10.319007	-11.289683	49.839626	67.601316	71.198257	2.608404	14.329373
0.135593	-1.724059	-3.083837	94.026624	0.194058	0.752944	0.790642	2.863485	-1.701391	-12.612908	7.178396	0.125287	29.800653	12.410236	0.000000	4.093924	3.365960	13.545829	3.557279	0.062086	28.763399	-9.014602	0.000000	0.251131	0.016240	0.322299	0.466376	0.021600	0.342443	0.412584	0.039487	0.342443	0.287018	0.039487	0.282012	0.233201	0.033117	0.261868	0.143497	0.025156	0.241724	1.793807	0.183713	1.792530	0.000000	0.000000	23.792715	-1.452249	8.627724	23.118957	-14.355294	81.581547	60.106133	24.872697	4.664963	12.103285	10.367711	-11.257725	49.686346	67.576049	71.778533	2.878262	14.555310
0.152542	-1.693359	-3.159623	94.363082	0.193923	0.752761	0.791193	2.880186	-1.658703	-12.813133	7.059100	0.123205	29.670817	12.239053	0.000000	4.321117	3.343323	13.554829	3.781068	0.065992	28.824071	-8.795689	0.000000	0.248453	0.014561	0.267860	0.461403	0.019367	0.284602	0.408184	0.035405	0.284602	0.283957	0.035405	0.234378	0.230714	0.029694	0.217637	0.141966	0.022556	0.200895	1.774678	0.164722	1.489759	0.000000	0.000000	23.962726	-1.414787	8.660276	23.158329	-14.234317	81.374252	59.969175	25.044398	4.442019	12.676929	10.419210	-11.207518	49.496035	67.536663	72.409462	3.144104	14.713513
0.169492	-1.665535	-3.244629	94.678872	0.193778	0.752553	0.791815	2.959427	-1.616007	-12.896658	7.007897	0.122311	29.536739	11.914837	0.000000	4.566269	3.325098	13.547334	4.014595	0.070068	28.885014	-8.586211	0.000000	0.246134	0.012794	0.216658	0.457096	0.017015	0.230200	0.404374	0.031106	0.230200	0.281307	0.031106	0.189576	0.228560	0.026089	0.176035	0.140641	0.019817	0.162494	1.758112	0.144723	1.204989	0.000000	0.000000	24.138722	-1.377150	8.685013	23.211895	-14.116502	81.192074	59.813766	25.437689	4.317281	13.217804	10.465473	-11.142860	49.270711	67.487055	73.058884	3.397950	14.807298
0.186441	-1.657102	-3.327751	94.943186	0.193653	0.752362	0.792425	3.089442	-1.588587	-12.808544	7.027658	0.122656	29.420542	11.423745	0.000000	4.800795	3.323149	13.483321	4.222013	0.073688	28.965567	-8.297930	0.000000	0.242033	0.008630	0.173814	0.449479	0.011478	0.184677	0.397636	0.020984	0.184677	0.276619	0.020984	0.152087	0.224752	0.017599	0.141224	0.138298	0.013368	0.130361	1.728817	0.097628	0.966702	0.000000	0.000000	24.335527	-1.345914	8.637701	23.273313	-14.020559	81.117175	59.656484	26.545047	4.386079	13.316652	10.460057	-11.061312	48.951460	67.443650	73.675127	3.719066	14.868739
0.203390	-1.650234	-3.404815	95.173724	0.193513	0.752193	0.793004	3.249720	-1.565721	-12.616247	7.099203	0.123904	29.357460	10.886558	0.000000	5.020361	3.324672	13.428786	4.421773	0.077174	29.031996	-8.060818	0.000000	0.239993	0.005042	0.133185	0.445691	0.006706	0.141509	0.394285	0.012260	0.141509	0.274288	0.012260	0.116537	0.222858	0.010282	0.108213	0.137132	0.007811	0.099889	1.714247	0.057040	0.740734	0.000000	0.000000	24.491663	-1.273736	8.663176	23.356764	-13.926628	81.145604	59.487940	27.434136	4.545629	13.418290	10.400731	-10.984299	48.603260	67.438866	74.174106	3.883075	14.849687
0.220339	-1.649529	-3.475129	95.386916	0.193313	0.752057	0.793497	3.424437	-1.564898	-12.466749	7.217776	0.125974	29.353879	10.456337	0.000000	5.214995	3.338387	13.403148	4.603837	0.080352	29.077954	-7.884861	0.000000	0.241117	0.001373	0.094375	0.447778	0.001826	0.100273	0.396131	0.003339	0.100273	0.275572	0.003339	0.082578	0.223901	0.002800	0.076680	0.137774	0.002127	0.070781	1.722273	0.015533	0.524885	0.000000	0.000000	24.594136	-1.158346	8.733851	23.450628	-13.864511	81.299566	59.379885	27.819202	4.564156	13.396181	10.314719	-10.911534	48.268908	67.447962	74.538957	3.974689	14.740401
0.237288	-1.652553	-3.530837	95.563116	0.193069	0.751976	0.793928	3.606234	-1.580194	-12.328685	7.383228	0.128862	29.382536	10.103444	0.000000	5.377850	3.359130	13.375859	4.767597	0.083210	29.104677	-7.749426	0.000000	0.243611	-0.001213	0.058015	0.452409	-0.001614	0.061641	0.400228	-0.002950	0.061641	0.278423	-0.002950	0.050763	0.226217	-0.002474	0.047137	0.139199	-0.001879	0.043511	1.740087	-0.013725	0.322660	0.000000	0.000000	24.642083	-1.021523	8.881766	23.578779	-13.834207	81.566014	59.309555	28.111690	4.467111	13.155738	10.217926	-10.831091	47.940774	67.463033	74.742041	3.969192	14.605286
